<svg width="30" height="29" viewBox="0 0 30 29" fill="none" xmlns="http://www.w3.org/2000/svg">
<path d="M15 27.4897C14.025 27.4897 13.075 27.0063 12.425 26.1605L11.1625 24.5292C10.9 24.1909 10.55 23.9976 10.175 23.9734C9.8 23.9613 9.425 24.1184 9.125 24.4205L8.4125 23.8042L9.1 24.4205C7.3 26.2813 5.9125 26.1363 5.25 25.8826C4.575 25.6288 3.4375 24.7951 3.4375 22.1126V8.50675C3.4375 3.14175 5.0375 1.5105 10.275 1.5105H19.725C24.9625 1.5105 26.5625 3.14175 26.5625 8.50675V22.1126C26.5625 24.783 25.425 25.6167 24.75 25.8826C24.0875 26.1363 22.7125 26.2813 20.9 24.4205C20.6 24.1063 20.225 23.9372 19.8375 23.9734C19.4625 23.9976 19.1 24.1909 18.8375 24.5292L17.575 26.1605C16.925 27.0063 15.975 27.4897 15 27.4897ZM10.1 22.1488C10.15 22.1488 10.2125 22.1488 10.2625 22.1488C11.1875 22.1972 12.0625 22.6684 12.65 23.4297L13.9125 25.0609C14.525 25.8463 15.4625 25.8463 16.075 25.0609L17.3375 23.4297C17.9375 22.6684 18.8 22.1972 19.7375 22.1488C20.6625 22.1005 21.5875 22.4751 22.2625 23.1759C23.2125 24.1547 23.825 24.2755 24.05 24.1909C24.35 24.0701 24.675 23.3692 24.675 22.1126V8.50675C24.675 4.14466 23.8875 3.323 19.7125 3.323H10.275C6.1 3.323 5.3125 4.14466 5.3125 8.50675V22.1126C5.3125 23.3813 5.6375 24.0822 5.9375 24.1909C6.15 24.2755 6.775 24.1547 7.725 23.1759C8.4 22.5113 9.2375 22.1488 10.1 22.1488Z" fill="#292D32"/>
<path d="M20.2875 14.198H13.4125C12.9 14.198 12.475 13.7872 12.475 13.2917C12.475 12.7963 12.9 12.3855 13.4125 12.3855H20.2875C20.8 12.3855 21.225 12.7963 21.225 13.2917C21.225 13.7872 20.8 14.198 20.2875 14.198Z" fill="#292D32"/>
<path d="M20.2875 9.3645H13.4125C12.9 9.3645 12.475 8.95367 12.475 8.45825C12.475 7.96284 12.9 7.552 13.4125 7.552H20.2875C20.8 7.552 21.225 7.96284 21.225 8.45825C21.225 8.95367 20.8 9.3645 20.2875 9.3645Z" fill="#292D32"/>
<path d="M9.72498 9.66667C9.03748 9.66667 8.47498 9.12292 8.47498 8.45833C8.47498 7.79375 9.03748 7.25 9.72498 7.25C10.4125 7.25 10.975 7.79375 10.975 8.45833C10.975 9.12292 10.4125 9.66667 9.72498 9.66667Z" fill="#292D32"/>
<path d="M9.72498 14.4999C9.03748 14.4999 8.47498 13.9562 8.47498 13.2916C8.47498 12.627 9.03748 12.0833 9.72498 12.0833C10.4125 12.0833 10.975 12.627 10.975 13.2916C10.975 13.9562 10.4125 14.4999 9.72498 14.4999Z" fill="#292D32"/>
</svg>
