<svg width="29" height="29" viewBox="0 0 29 29" fill="none" xmlns="http://www.w3.org/2000/svg">
<path d="M17.7624 27.4896H11.2374C5.26821 27.4896 2.73071 24.94 2.73071 18.9829V13.5575C2.73071 13.0621 3.14155 12.6512 3.63696 12.6512C4.13238 12.6512 4.54321 13.0621 4.54321 13.5575V18.9829C4.54321 23.925 6.2953 25.6771 11.2374 25.6771H17.7503C22.6924 25.6771 24.4445 23.925 24.4445 18.9829V13.5575C24.4445 13.0621 24.8553 12.6512 25.3507 12.6512C25.8461 12.6512 26.257 13.0621 26.257 13.5575V18.9829C26.269 24.94 23.7195 27.4896 17.7624 27.4896Z" fill="#292D32"/>
<path d="M14.5 15.4063C13.1709 15.4063 11.9625 14.8867 11.1046 13.9321C10.2467 12.9775 9.84796 11.7329 9.98088 10.4038L10.7905 2.3321C10.8388 1.87294 11.2255 1.51044 11.6967 1.51044H17.3396C17.8109 1.51044 18.1975 1.86085 18.2459 2.3321L19.0555 10.4038C19.1884 11.7329 18.7896 12.9775 17.9317 13.9321C17.0375 14.8867 15.8292 15.4063 14.5 15.4063ZM12.5063 3.32294L11.7813 10.585C11.6967 11.3946 11.9384 12.1559 12.4459 12.7117C13.473 13.8475 15.5271 13.8475 16.5542 12.7117C17.0617 12.1438 17.3034 11.3825 17.2188 10.585L16.4938 3.32294H12.5063Z" fill="#292D32"/>
<path d="M22.1245 15.4063C19.6716 15.4063 17.4845 13.4246 17.2308 10.9838L16.3849 2.51335C16.3608 2.2596 16.4453 2.00585 16.6145 1.81252C16.7837 1.61919 17.0253 1.51044 17.2912 1.51044H20.9766C24.5291 1.51044 26.1845 2.99669 26.6799 6.64585L27.0183 10.005C27.1633 11.4309 26.7283 12.7842 25.7978 13.8113C24.8674 14.8384 23.5624 15.4063 22.1245 15.4063ZM18.2941 3.32294L19.0433 10.8025C19.2003 12.3129 20.602 13.5938 22.1245 13.5938C23.0428 13.5938 23.8645 13.2434 24.4566 12.6029C25.0366 11.9625 25.3024 11.1046 25.2178 10.1863L24.8795 6.86335C24.5049 4.13252 23.6228 3.32294 20.9766 3.32294H18.2941Z" fill="#292D32"/>
<path d="M6.8149 15.4063C5.37699 15.4063 4.07199 14.8384 3.14157 13.8113C2.21115 12.7842 1.77615 11.4309 1.92115 10.005L2.2474 6.6821C2.7549 2.99669 4.41032 1.51044 7.96282 1.51044H11.6482C11.902 1.51044 12.1437 1.61919 12.3249 1.81252C12.5062 2.00585 12.5787 2.2596 12.5545 2.51335L11.7087 10.9838C11.4549 13.4246 9.26782 15.4063 6.8149 15.4063ZM7.96282 3.32294C5.31657 3.32294 4.43449 4.12044 4.04782 6.88752L3.72157 10.1863C3.6249 11.1046 3.90282 11.9625 4.48282 12.6029C5.06282 13.2434 5.88449 13.5938 6.8149 13.5938C8.3374 13.5938 9.75115 12.3129 9.89615 10.8025L10.6453 3.32294H7.96282Z" fill="#292D32"/>
<path d="M17.5209 27.4896H11.4792C10.9838 27.4896 10.573 27.0788 10.573 26.5834V23.5625C10.573 21.025 11.9626 19.6354 14.5001 19.6354C17.0376 19.6354 18.4272 21.025 18.4272 23.5625V26.5834C18.4272 27.0788 18.0163 27.4896 17.5209 27.4896ZM12.3855 25.6771H16.6147V23.5625C16.6147 22.04 16.0226 21.4479 14.5001 21.4479C12.9776 21.4479 12.3855 22.04 12.3855 23.5625V25.6771Z" fill="#292D32"/>
</svg>
